<mxfile host="app.diagrams.net" agent="Mozilla/5.0 (Windows NT 10.0; Win64; x64; rv:133.0) Gecko/20100101 Firefox/133.0" version="25.0.3">
  <diagram name="Seite-1" id="BKRfMI5abuOFoWmJq0zK">
    <mxGraphModel dx="875" dy="473" grid="1" gridSize="10" guides="1" tooltips="1" connect="1" arrows="1" fold="1" page="1" pageScale="1" pageWidth="827" pageHeight="1169" math="0" shadow="0">
      <root>
        <mxCell id="0" />
        <mxCell id="1" parent="0" />
        <mxCell id="IaKYG4yvnXf-astbD4Oj-56" value="" style="rounded=0;whiteSpace=wrap;html=1;fillColor=default;strokeColor=none;" parent="1" vertex="1">
          <mxGeometry x="80" y="80" width="540" height="260" as="geometry" />
        </mxCell>
        <mxCell id="MBw85vdi80VA92OxYh2Z-1" value="Person" style="rounded=0;whiteSpace=wrap;html=1;fontStyle=1" parent="1" vertex="1">
          <mxGeometry x="490" y="266" width="130" height="26" as="geometry" />
        </mxCell>
        <mxCell id="MBw85vdi80VA92OxYh2Z-2" value="Restaurant" style="rounded=0;whiteSpace=wrap;html=1;fontStyle=1" parent="1" vertex="1">
          <mxGeometry x="80" y="90" width="130" height="26" as="geometry" />
        </mxCell>
        <mxCell id="MBw85vdi80VA92OxYh2Z-3" value="Person" style="rounded=0;whiteSpace=wrap;html=1;fontStyle=1" parent="1" vertex="1">
          <mxGeometry x="490" y="90" width="130" height="26" as="geometry" />
        </mxCell>
        <mxCell id="ttQVAZBpi68U4xG_rW-i-1" value="" style="endArrow=open;html=1;rounded=0;align=center;verticalAlign=top;endFill=0;labelBackgroundColor=none;exitX=1;exitY=0.5;exitDx=0;exitDy=0;entryX=0;entryY=0.5;entryDx=0;entryDy=0;startArrow=cross;startFill=0;spacingBottom=0;endSize=10;startSize=10;sourcePerimeterSpacing=0;" parent="1" source="MBw85vdi80VA92OxYh2Z-2" target="MBw85vdi80VA92OxYh2Z-3" edge="1">
          <mxGeometry relative="1" as="geometry">
            <mxPoint x="300" y="130" as="sourcePoint" />
            <mxPoint x="460" y="130" as="targetPoint" />
          </mxGeometry>
        </mxCell>
        <mxCell id="ttQVAZBpi68U4xG_rW-i-2" value="0..1" style="resizable=0;html=1;align=left;verticalAlign=bottom;labelBackgroundColor=none;spacingBottom=5;spacingLeft=3;" parent="ttQVAZBpi68U4xG_rW-i-1" connectable="0" vertex="1">
          <mxGeometry x="-1" relative="1" as="geometry" />
        </mxCell>
        <mxCell id="ttQVAZBpi68U4xG_rW-i-3" value="stammlokal" style="resizable=0;html=1;align=left;verticalAlign=top;labelBackgroundColor=none;spacingLeft=3;" parent="ttQVAZBpi68U4xG_rW-i-1" connectable="0" vertex="1">
          <mxGeometry x="-1" relative="1" as="geometry" />
        </mxCell>
        <mxCell id="ttQVAZBpi68U4xG_rW-i-4" value="&lt;font style=&quot;font-size: 15px;&quot;&gt;*&lt;/font&gt;" style="resizable=0;html=1;align=right;verticalAlign=bottom;labelBackgroundColor=none;spacingBottom=1;spacingRight=3;" parent="ttQVAZBpi68U4xG_rW-i-1" connectable="0" vertex="1">
          <mxGeometry x="1" relative="1" as="geometry" />
        </mxCell>
        <mxCell id="ttQVAZBpi68U4xG_rW-i-5" value="stammkunde" style="resizable=0;html=1;align=right;verticalAlign=top;labelBackgroundColor=none;spacingBottom=3;spacing=2;spacingRight=3;spacingTop=4;" parent="1" connectable="0" vertex="1">
          <mxGeometry x="530" y="103" as="geometry">
            <mxPoint x="-42" y="-4" as="offset" />
          </mxGeometry>
        </mxCell>
        <mxCell id="mjXhb2761OaL5Bagwi9g-6" value="StammkundenMenge" style="rounded=0;whiteSpace=wrap;html=1;fontStyle=1" parent="1" vertex="1">
          <mxGeometry x="280" y="266" width="140" height="26" as="geometry" />
        </mxCell>
        <mxCell id="evQiThfSp_hV0CGQ2GFK-1" value="" style="endArrow=open;html=1;rounded=0;align=center;verticalAlign=top;endFill=0;labelBackgroundColor=none;startArrow=diamondThin;startFill=1;endSize=10;startSize=15;entryX=0;entryY=0.5;entryDx=0;entryDy=0;" parent="1" source="7zMnRLcM524pGKS6RkcL-5" target="mjXhb2761OaL5Bagwi9g-6" edge="1">
          <mxGeometry relative="1" as="geometry">
            <mxPoint x="340" y="420" as="sourcePoint" />
            <mxPoint x="530" y="386" as="targetPoint" />
          </mxGeometry>
        </mxCell>
        <mxCell id="evQiThfSp_hV0CGQ2GFK-2" value="1" style="resizable=0;html=1;align=left;verticalAlign=bottom;labelBackgroundColor=none;spacingLeft=3;spacingBottom=5;" parent="evQiThfSp_hV0CGQ2GFK-1" connectable="0" vertex="1">
          <mxGeometry x="-1" relative="1" as="geometry" />
        </mxCell>
        <mxCell id="evQiThfSp_hV0CGQ2GFK-4" value="1" style="resizable=0;html=1;align=right;verticalAlign=bottom;labelBackgroundColor=none;spacingRight=3;spacingBottom=5;" parent="evQiThfSp_hV0CGQ2GFK-1" connectable="0" vertex="1">
          <mxGeometry x="1" relative="1" as="geometry" />
        </mxCell>
        <mxCell id="evQiThfSp_hV0CGQ2GFK-6" value="" style="endArrow=open;html=1;rounded=0;align=center;verticalAlign=top;endFill=0;labelBackgroundColor=none;exitX=1;exitY=0.5;exitDx=0;exitDy=0;entryX=0;entryY=0.5;entryDx=0;entryDy=0;startArrow=cross;startFill=0;spacingBottom=0;endSize=10;startSize=10;" parent="1" source="mjXhb2761OaL5Bagwi9g-6" target="MBw85vdi80VA92OxYh2Z-1" edge="1">
          <mxGeometry relative="1" as="geometry">
            <mxPoint x="54.99999999999977" y="389.9999999999999" as="sourcePoint" />
            <mxPoint x="254.99999999999977" y="389.9999999999999" as="targetPoint" />
          </mxGeometry>
        </mxCell>
        <mxCell id="evQiThfSp_hV0CGQ2GFK-7" value="0..1" style="resizable=0;html=1;align=left;verticalAlign=bottom;labelBackgroundColor=none;spacingBottom=5;spacingLeft=3;" parent="evQiThfSp_hV0CGQ2GFK-6" connectable="0" vertex="1">
          <mxGeometry x="-1" relative="1" as="geometry" />
        </mxCell>
        <mxCell id="evQiThfSp_hV0CGQ2GFK-9" value="&lt;font style=&quot;font-size: 15px;&quot;&gt;*&lt;/font&gt;" style="resizable=0;html=1;align=right;verticalAlign=bottom;labelBackgroundColor=none;spacingBottom=0;spacingRight=3;" parent="evQiThfSp_hV0CGQ2GFK-6" connectable="0" vertex="1">
          <mxGeometry x="1" relative="1" as="geometry" />
        </mxCell>
        <mxCell id="7zMnRLcM524pGKS6RkcL-5" value="Restaurant" style="swimlane;fontStyle=1;align=center;verticalAlign=top;childLayout=stackLayout;horizontal=1;startSize=26;horizontalStack=0;resizeParent=1;resizeParentMax=0;resizeLast=0;collapsible=1;marginBottom=0;whiteSpace=wrap;html=1;" parent="1" vertex="1">
          <mxGeometry x="80" y="223" width="130" height="112" as="geometry" />
        </mxCell>
        <mxCell id="7zMnRLcM524pGKS6RkcL-6" value="&amp;nbsp;" style="text;strokeColor=none;fillColor=none;align=left;verticalAlign=top;spacingLeft=4;spacingRight=4;overflow=hidden;rotatable=0;points=[[0,0.5],[1,0.5]];portConstraint=eastwest;whiteSpace=wrap;html=1;" parent="7zMnRLcM524pGKS6RkcL-5" vertex="1">
          <mxGeometry y="26" width="130" height="26" as="geometry" />
        </mxCell>
        <mxCell id="7zMnRLcM524pGKS6RkcL-7" value="" style="line;strokeWidth=1;fillColor=none;align=left;verticalAlign=middle;spacingTop=-1;spacingLeft=3;spacingRight=3;rotatable=0;labelPosition=right;points=[];portConstraint=eastwest;strokeColor=inherit;" parent="7zMnRLcM524pGKS6RkcL-5" vertex="1">
          <mxGeometry y="52" width="130" height="8" as="geometry" />
        </mxCell>
        <mxCell id="mjXhb2761OaL5Bagwi9g-4" value="+ verbinde(Person)" style="text;strokeColor=none;fillColor=none;align=left;verticalAlign=top;spacingLeft=4;spacingRight=4;overflow=hidden;rotatable=0;points=[[0,0.5],[1,0.5]];portConstraint=eastwest;whiteSpace=wrap;html=1;" parent="7zMnRLcM524pGKS6RkcL-5" vertex="1">
          <mxGeometry y="60" width="130" height="26" as="geometry" />
        </mxCell>
        <mxCell id="mjXhb2761OaL5Bagwi9g-5" value="+ lÃ¶se(Person)" style="text;strokeColor=none;fillColor=none;align=left;verticalAlign=top;spacingLeft=4;spacingRight=4;overflow=hidden;rotatable=0;points=[[0,0.5],[1,0.5]];portConstraint=eastwest;whiteSpace=wrap;html=1;" parent="7zMnRLcM524pGKS6RkcL-5" vertex="1">
          <mxGeometry y="86" width="130" height="26" as="geometry" />
        </mxCell>
        <mxCell id="N5Y-9_4GUIpQWreEhWF7-2" value="" style="shape=flexArrow;endArrow=classic;html=1;rounded=1;strokeColor=#006666;strokeWidth=2;flowAnimation=0;shadow=0;endSize=8.428571428571429;startSize=4;endWidth=24;fillColor=#E0ECEC;" parent="1" edge="1">
          <mxGeometry width="50" height="50" relative="1" as="geometry">
            <mxPoint x="349.5799999999999" y="140" as="sourcePoint" />
            <mxPoint x="349.5799999999999" y="215" as="targetPoint" />
          </mxGeometry>
        </mxCell>
      </root>
    </mxGraphModel>
  </diagram>
</mxfile>
